<svg width="78" height="78" viewBox="0 0 78 78" fill="none" xmlns="http://www.w3.org/2000/svg">
<rect width="78" height="78" rx="6" fill="white"/>
<path d="M17.664 44.696L15.488 43.992L24.672 32.6H32.928L16.704 51H9.536V26.36H17.664V44.696ZM19.424 42.104L25.696 38.104L33.376 51H24.352L19.424 42.104ZM44.6788 51.576C42.2468 51.576 40.1134 51.1707 38.2788 50.36C36.4654 49.5493 35.0468 48.408 34.0228 46.936C33.0201 45.464 32.5188 43.7573 32.5188 41.816C32.5188 39.8533 33.0201 38.136 34.0228 36.664C35.0468 35.192 36.4654 34.0507 38.2788 33.24C40.1134 32.4293 42.2468 32.024 44.6788 32.024C47.1108 32.024 49.2334 32.4293 51.0468 33.24C52.8814 34.0507 54.3001 35.192 55.3028 36.664C56.3268 38.136 56.8388 39.8533 56.8388 41.816C56.8388 43.7573 56.3268 45.464 55.3028 46.936C54.3001 48.408 52.8814 49.5493 51.0468 50.36C49.2334 51.1707 47.1108 51.576 44.6788 51.576ZM44.6788 45.656C45.5321 45.656 46.2468 45.5067 46.8228 45.208C47.4201 44.9093 47.8681 44.472 48.1667 43.896C48.4868 43.32 48.6468 42.6267 48.6468 41.816C48.6468 40.984 48.4868 40.28 48.1667 39.704C47.8681 39.128 47.4201 38.6907 46.8228 38.392C46.2468 38.0933 45.5321 37.944 44.6788 37.944C43.8468 37.944 43.1321 38.0933 42.5348 38.392C41.9374 38.6907 41.4788 39.128 41.1588 39.704C40.8601 40.28 40.7108 40.984 40.7108 41.816C40.7108 42.6267 40.8601 43.32 41.1588 43.896C41.4788 44.472 41.9374 44.9093 42.5348 45.208C43.1321 45.5067 43.8468 45.656 44.6788 45.656ZM59.161 32.216L63.225 33.048L67.289 32.216V51H59.161V32.216ZM63.225 31.256C61.8597 31.256 60.761 30.9253 59.929 30.264C59.097 29.6027 58.681 28.696 58.681 27.544C58.681 26.392 59.097 25.4853 59.929 24.824C60.761 24.1627 61.8597 23.832 63.225 23.832C64.6117 23.832 65.7103 24.1627 66.521 24.824C67.353 25.4853 67.769 26.392 67.769 27.544C67.769 28.696 67.353 29.6027 66.521 30.264C65.7103 30.9253 64.6117 31.256 63.225 31.256Z" fill="#27272A"/>
</svg>
