<svg width="270" height="33" viewBox="0 0 270 33" fill="none" xmlns="http://www.w3.org/2000/svg">
<path d="M258.969 15.6875C258.969 17.2188 259.448 17.9844 260.406 17.9844C261.073 17.9844 262.224 17.401 263.859 16.2344C265.339 15.1406 266.219 14.4531 266.5 14.1719C267.146 13.6302 267.823 13.3594 268.531 13.3594C268.833 13.3594 269.089 13.4635 269.297 13.6719C269.516 13.8698 269.625 14.1719 269.625 14.5781C269.625 14.9844 269.526 15.3542 269.328 15.6875C269.13 16.0208 268.875 16.3646 268.562 16.7188C268.26 17.0729 267.88 17.4688 267.422 17.9062C266.974 18.3438 266.458 18.8073 265.875 19.2969C265.292 19.776 264.651 20.2552 263.953 20.7344C263.266 21.2135 262.552 21.6458 261.812 22.0312C260.146 22.8854 258.641 23.3125 257.297 23.3125C255.755 23.3125 254.708 22.6146 254.156 21.2188C253.833 20.4167 253.672 19.4531 253.672 18.3281L249.125 21.4062C246.01 23.5938 244.156 24.7552 243.562 24.8906C243.26 24.9635 242.953 25 242.641 25C242.339 25 242.052 24.9688 241.781 24.9062C241.51 24.8542 241.271 24.7604 241.062 24.625C240.583 24.3438 240.344 23.9271 240.344 23.375C240.344 23.1562 240.49 22.625 240.781 21.7812L242.125 18.0938C242.542 16.9062 242.75 16.1927 242.75 15.9531C242.75 15.8698 242.698 15.8281 242.594 15.8281C242.49 15.8281 242.297 15.9375 242.016 16.1562C241.734 16.375 241.396 16.6562 241 17L237.281 20.25L235.328 21.875C233.328 23.4688 231.698 24.2656 230.438 24.2656C229.844 24.2656 229.245 24 228.641 23.4688C227.984 22.9062 227.656 22.2292 227.656 21.4375C227.656 20.6458 227.734 19.7812 227.891 18.8438C228.036 17.9062 228.25 17.0052 228.531 16.1406C228.812 15.2656 229.161 14.4479 229.578 13.6875C229.995 12.9167 230.469 12.25 231 11.6875C232.146 10.4583 233.495 9.84375 235.047 9.84375C236.609 9.84375 237.391 10.3021 237.391 11.2188C237.391 11.6146 237.177 12.2188 236.75 13.0312C235.844 14.8229 235.391 15.7917 235.391 15.9375C235.391 16.0729 235.432 16.1823 235.516 16.2656C235.609 16.3385 235.708 16.375 235.812 16.375C236.031 16.375 236.344 16.1979 236.75 15.8438C239.427 13.5 241.109 12.0469 241.797 11.4844C242.495 10.9219 243.167 10.4271 243.812 10C245.292 9.03125 246.469 8.54688 247.344 8.54688C248.062 8.54688 248.646 8.66146 249.094 8.89062C249.875 9.29688 250.266 9.75521 250.266 10.2656C250.266 10.776 250.193 11.3542 250.047 12C249.911 12.6458 249.76 13.2708 249.594 13.875L249.125 15.4688C248.979 15.9271 248.906 16.2812 248.906 16.5312C248.906 16.7708 249.01 16.8906 249.219 16.8906C249.719 16.8906 250.714 16.1823 252.203 14.7656L253.719 13.3438C255.458 11.7812 256.776 11 257.672 11C258.099 11 258.479 11.1667 258.812 11.5C259.396 12.0833 259.688 12.5938 259.688 13.0312C259.688 13.2708 259.604 13.5938 259.438 14C259.125 14.7604 258.969 15.3229 258.969 15.6875Z" fill="#27272A"/>
<path d="M221.797 16.3906C221.797 17.4427 222.26 17.9688 223.188 17.9688C224.115 17.9688 225.719 17.0781 228 15.2969L229.375 14.1719C230.281 13.4219 231.146 13.0469 231.969 13.0469C232.271 13.0469 232.469 13.1302 232.562 13.2969C232.656 13.4531 232.703 13.6562 232.703 13.9062C232.703 14.1458 232.656 14.401 232.562 14.6719C232.479 14.9323 232.359 15.2083 232.203 15.5C231.859 16.1562 231.526 16.6667 231.203 17.0312C230.88 17.3958 230.5 17.776 230.062 18.1719C229.635 18.5573 229.125 18.9948 228.531 19.4844C227.938 19.9635 227.281 20.4583 226.562 20.9688C225.844 21.4688 225.12 21.9271 224.391 22.3438C222.745 23.3021 221.391 23.7812 220.328 23.7812C219.057 23.7812 218.062 23.3333 217.344 22.4375C216.667 21.6042 216.286 20.4896 216.203 19.0938C214.328 21.0208 212.344 22.5052 210.25 23.5469C208.969 24.1823 207.885 24.5 207 24.5C206.115 24.5 205.339 24.3958 204.672 24.1875C204.005 23.9688 203.422 23.6458 202.922 23.2188C201.839 22.3125 201.297 21.0521 201.297 19.4375C201.297 17.125 202.125 14.8958 203.781 12.75C204.302 12.0833 204.885 11.5 205.531 11C206.927 10.125 208.406 9.6875 209.969 9.6875C210.656 9.6875 211.146 9.90104 211.438 10.3281C211.552 10.4948 211.609 10.7135 211.609 10.9844C211.609 11.2448 211.531 11.5521 211.375 11.9062C211.229 12.25 211.047 12.6146 210.828 13C210.609 13.375 210.365 13.7656 210.094 14.1719C209.833 14.5781 209.594 14.974 209.375 15.3594C208.854 16.276 208.594 16.9375 208.594 17.3438C208.594 17.7396 208.708 18.0312 208.938 18.2188C209.167 18.4062 209.448 18.5 209.781 18.5C210.521 18.5 211.151 18.3229 211.672 17.9688C212.193 17.6042 212.708 17.1875 213.219 16.7188L214.688 15.2812L216.109 13.8125C217.12 12.7812 217.885 12.1406 218.406 11.8906C218.938 11.6302 219.323 11.5312 219.562 11.5938C219.802 11.6562 220.047 11.7708 220.297 11.9375C220.547 12.0938 220.792 12.2865 221.031 12.5156C221.594 13.0573 221.906 13.5469 221.969 13.9844C221.99 14.2656 221.964 14.6875 221.891 15.25C221.828 15.8021 221.797 16.1823 221.797 16.3906Z" fill="#27272A"/>
<path d="M194.031 9.03125C194.135 9.23958 194.188 9.51562 194.188 9.85938C194.188 10.1927 194.016 10.5729 193.672 11C193.943 11.2812 194.286 11.6094 194.703 11.9844C195.13 12.349 195.542 12.75 195.938 13.1875C196.896 14.2604 197.375 15.2865 197.375 16.2656C197.375 16.9115 196.932 17.6979 196.047 18.625C195.776 18.9167 195.479 19.1875 195.156 19.4375C196.24 19.0208 197.542 18.1927 199.062 16.9531L200.891 15.4531C201.953 14.5677 202.661 14.0573 203.016 13.9219C203.38 13.7865 203.708 13.7188 204 13.7188C204.292 13.7188 204.573 13.7917 204.844 13.9375C205.125 14.0833 205.266 14.3229 205.266 14.6562C205.266 14.9792 205.214 15.2969 205.109 15.6094C205.005 15.9115 204.88 16.1927 204.734 16.4531C204.526 16.8281 204.224 17.2135 203.828 17.6094C202.734 18.6406 201.672 19.5885 200.641 20.4531C199.62 21.3073 198.562 22.0417 197.469 22.6562C195.156 23.9479 192.594 24.5938 189.781 24.5938C188.208 24.5938 186.844 24.1927 185.688 23.3906C185.208 23.0573 184.839 22.7135 184.578 22.3594C184.328 21.9948 184.203 21.7135 184.203 21.5156C184.203 21.3073 184.271 21.0938 184.406 20.875C184.542 20.6458 184.724 20.4115 184.953 20.1719C185.182 19.9323 185.443 19.6927 185.734 19.4531C186.036 19.2135 186.344 19 186.656 18.8125C187.385 18.3854 187.927 18.1719 188.281 18.1719C188.646 18.1719 188.922 18.2188 189.109 18.3125C189.297 18.3958 189.469 18.4896 189.625 18.5938C190.052 18.8854 190.354 19.0312 190.531 19.0312C190.958 19.0312 191.172 18.7396 191.172 18.1562C191.172 17.6146 190.885 16.9635 190.312 16.2031C190.083 15.8906 189.844 15.5833 189.594 15.2812C189.344 14.9792 189.135 14.6823 188.969 14.3906C188.635 14.776 188.219 15.1719 187.719 15.5781L186.203 16.8594C185.151 17.7656 184.177 18.1979 183.281 18.1562C182.76 18.1146 182.5 17.5365 182.5 16.4219C182.5 16.224 182.516 16.0312 182.547 15.8438C182.599 15.5208 182.917 15.1302 183.5 14.6719C184.083 14.2135 184.505 13.901 184.766 13.7344C185.036 13.5573 185.266 13.401 185.453 13.2656L187.109 12.1406C187.109 11.0781 187.724 10.1042 188.953 9.21875C190.12 8.38542 191.276 7.96875 192.422 7.96875C193.151 7.96875 193.688 8.32292 194.031 9.03125Z" fill="#27272A"/>
<path d="M168.328 20.3438C168.672 20.1979 169.151 19.9688 169.766 19.6562C173.526 17.7292 175.589 16.6667 175.953 16.4688L176.609 16.1094C177.286 15.6719 177.599 15.3281 177.547 15.0781C177.432 14.5469 177.146 14.3333 176.688 14.4375C176.229 14.5312 175.75 14.6615 175.25 14.8281C174.76 14.9948 174.24 15.1979 173.688 15.4375C172.531 15.9167 171.516 16.3958 170.641 16.875C167.578 18.6354 165.734 19.7031 165.109 20.0781C164.661 21.0885 164.26 22.0938 163.906 23.0938L162.016 28.4375C161.422 30.0938 160.823 31.2135 160.219 31.7969C159.896 32.1198 159.536 32.2812 159.141 32.2812C158.161 32.2812 157.391 31.9375 156.828 31.25C156.266 30.5729 155.984 29.7083 155.984 28.6562C155.984 27.6146 156.12 26.5833 156.391 25.5625C156.661 24.5521 157.036 23.526 157.516 22.4844C158.484 20.3802 159.781 18.4167 161.406 16.5938C162.396 13.9375 164.042 11.3594 166.344 8.85938C167.75 7.33854 169.057 6.26562 170.266 5.64062C170.87 5.32812 171.385 5.17188 171.812 5.17188C172.24 5.17188 172.562 5.27083 172.781 5.46875C173 5.65625 173.109 5.89583 173.109 6.1875C173.109 6.46875 173.021 6.82812 172.844 7.26562C172.667 7.70312 172.427 8.19271 172.125 8.73438C171.823 9.27604 171.469 9.85417 171.062 10.4688L169.766 12.3594C169.661 12.5156 169.609 12.6562 169.609 12.7812C169.609 12.9792 169.729 13.0781 169.969 13.0781C170.24 13.0781 170.74 12.9062 171.469 12.5625L173.969 11.4062C176.156 10.4167 178.25 9.92188 180.25 9.92188C181.292 9.92188 182.271 10.4167 183.188 11.4062C184.115 12.4062 184.578 13.4792 184.578 14.625C184.578 16.3958 183.854 17.7604 182.406 18.7188L180.469 20C179.771 20.4375 179.052 20.8698 178.312 21.2969L176.062 22.5312C173.531 23.8438 171.573 24.5 170.188 24.5C168.812 24.5 167.812 24.3281 167.188 23.9844C166.562 23.6406 166.25 23.1562 166.25 22.5312C166.25 21.6875 166.943 20.9583 168.328 20.3438Z" fill="#27272A"/>
<path d="M160.484 6.1875C160.182 6.4375 159.854 6.64583 159.5 6.8125C159.146 6.96875 158.75 7.04688 158.312 7.04688C157.875 7.04688 157.453 6.97396 157.047 6.82812C156.641 6.68229 156.286 6.47917 155.984 6.21875C155.328 5.65625 155 4.9375 155 4.0625C155 2.71875 156.125 1.71875 158.375 1.0625C159.135 0.833333 159.76 0.71875 160.25 0.71875C160.74 0.71875 161.104 0.776042 161.344 0.890625C161.594 0.994792 161.797 1.13542 161.953 1.3125C162.266 1.66667 162.422 2.03125 162.422 2.40625C162.422 2.77083 162.375 3.10417 162.281 3.40625C162.198 3.70833 162.073 4.02083 161.906 4.34375C161.74 4.66667 161.536 4.98958 161.297 5.3125C161.057 5.63542 160.786 5.92708 160.484 6.1875ZM156.547 23.3906C155.755 23.7969 154.984 24.1198 154.234 24.3594C153.484 24.6094 152.745 24.7344 152.016 24.7344C151.297 24.7344 150.547 24.5625 149.766 24.2188C148.995 23.8646 148.307 23.3958 147.703 22.8125C146.359 21.5104 145.688 20.0625 145.688 18.4688C145.688 17 146.125 15.5104 147 14C147.802 12.6354 148.823 11.4896 150.062 10.5625C151.302 9.63542 152.453 9.17188 153.516 9.17188C155.036 9.17188 155.849 9.59896 155.953 10.4531C155.984 10.7135 156 11.0156 156 11.3594C156 11.7031 155.917 12.099 155.75 12.5469C155.594 12.9844 155.385 13.4271 155.125 13.875C154.875 14.3125 154.594 14.7448 154.281 15.1719C153.979 15.5885 153.688 15.9688 153.406 16.3125C152.865 16.9688 152.432 17.4427 152.109 17.7344C152.109 18.0885 152.375 18.4531 152.906 18.8281C153.406 19.1823 153.828 19.3594 154.172 19.3594C154.526 19.3594 154.938 19.276 155.406 19.1094C155.885 18.9427 156.375 18.7188 156.875 18.4375C157.385 18.1562 157.901 17.8333 158.422 17.4688C158.953 17.1042 159.474 16.7292 159.984 16.3438L162.844 14.1094C163.979 13.2865 164.901 12.875 165.609 12.875C165.891 12.875 166.104 12.9792 166.25 13.1875C166.406 13.3854 166.484 13.6198 166.484 13.8906C166.484 14.1615 166.349 14.5365 166.078 15.0156C165.807 15.4844 165.432 16.0052 164.953 16.5781C164.484 17.151 163.932 17.75 163.297 18.375C162.661 19 161.974 19.6146 161.234 20.2188C160.495 20.8229 159.724 21.401 158.922 21.9531C158.13 22.4948 157.339 22.974 156.547 23.3906Z" fill="#27272A"/>
<path d="M127.266 19.5625C126.901 19.5625 126.719 19.349 126.719 18.9219C126.719 18.5156 126.833 18.1042 127.062 17.6875C127.302 17.2708 127.526 16.9792 127.734 16.8125C127.943 16.6354 128.167 16.4792 128.406 16.3438C128.927 16.0729 129.385 15.9375 129.781 15.9375H138.828C138.995 15.9375 139.151 16 139.297 16.125C139.443 16.2396 139.516 16.401 139.516 16.6094C139.516 17.026 139.375 17.4688 139.094 17.9375C138.823 18.3958 138.495 18.7865 138.109 19.1094C137.734 19.4219 137.349 19.5781 136.953 19.5781L127.266 19.5625Z" fill="#27272A"/>
<path d="M112.906 15.6875C112.906 17.2188 113.385 17.9844 114.344 17.9844C115.01 17.9844 116.161 17.401 117.797 16.2344C119.276 15.1406 120.156 14.4531 120.438 14.1719C121.083 13.6302 121.76 13.3594 122.469 13.3594C122.771 13.3594 123.026 13.4635 123.234 13.6719C123.453 13.8698 123.562 14.1719 123.562 14.5781C123.562 14.9844 123.464 15.3542 123.266 15.6875C123.068 16.0208 122.812 16.3646 122.5 16.7188C122.198 17.0729 121.818 17.4688 121.359 17.9062C120.911 18.3438 120.396 18.8073 119.812 19.2969C119.229 19.776 118.589 20.2552 117.891 20.7344C117.203 21.2135 116.49 21.6458 115.75 22.0312C114.083 22.8854 112.578 23.3125 111.234 23.3125C109.693 23.3125 108.646 22.6146 108.094 21.2188C107.771 20.4167 107.609 19.4531 107.609 18.3281L103.062 21.4062C99.9479 23.5938 98.0938 24.7552 97.5 24.8906C97.1979 24.9635 96.8906 25 96.5781 25C96.276 25 95.9896 24.9688 95.7188 24.9062C95.4479 24.8542 95.2083 24.7604 95 24.625C94.5208 24.3438 94.2812 23.9271 94.2812 23.375C94.2812 23.1562 94.4271 22.625 94.7188 21.7812L96.0625 18.0938C96.4792 16.9062 96.6875 16.1927 96.6875 15.9531C96.6875 15.8698 96.6354 15.8281 96.5312 15.8281C96.4271 15.8281 96.2344 15.9375 95.9531 16.1562C95.6719 16.375 95.3333 16.6562 94.9375 17L91.2188 20.25L89.2656 21.875C87.2656 23.4688 85.6354 24.2656 84.375 24.2656C83.7812 24.2656 83.1823 24 82.5781 23.4688C81.9219 22.9062 81.5938 22.2292 81.5938 21.4375C81.5938 20.6458 81.6719 19.7812 81.8281 18.8438C81.974 17.9062 82.1875 17.0052 82.4688 16.1406C82.75 15.2656 83.099 14.4479 83.5156 13.6875C83.9323 12.9167 84.4062 12.25 84.9375 11.6875C86.0833 10.4583 87.4323 9.84375 88.9844 9.84375C90.5469 9.84375 91.3281 10.3021 91.3281 11.2188C91.3281 11.6146 91.1146 12.2188 90.6875 13.0312C89.7812 14.8229 89.3281 15.7917 89.3281 15.9375C89.3281 16.0729 89.3698 16.1823 89.4531 16.2656C89.5469 16.3385 89.6458 16.375 89.75 16.375C89.9688 16.375 90.2812 16.1979 90.6875 15.8438C93.3646 13.5 95.0469 12.0469 95.7344 11.4844C96.4323 10.9219 97.1042 10.4271 97.75 10C99.2292 9.03125 100.406 8.54688 101.281 8.54688C102 8.54688 102.583 8.66146 103.031 8.89062C103.812 9.29688 104.203 9.75521 104.203 10.2656C104.203 10.776 104.13 11.3542 103.984 12C103.849 12.6458 103.698 13.2708 103.531 13.875L103.062 15.4688C102.917 15.9271 102.844 16.2812 102.844 16.5312C102.844 16.7708 102.948 16.8906 103.156 16.8906C103.656 16.8906 104.651 16.1823 106.141 14.7656L107.656 13.3438C109.396 11.7812 110.714 11 111.609 11C112.036 11 112.417 11.1667 112.75 11.5C113.333 12.0833 113.625 12.5938 113.625 13.0312C113.625 13.2708 113.542 13.5938 113.375 14C113.062 14.7604 112.906 15.3229 112.906 15.6875Z" fill="#27272A"/>
<path d="M86.2656 12.7656C86.7656 12.7656 87.0156 13.0469 87.0156 13.6094C87.0156 13.9844 86.8854 14.4583 86.625 15.0312C86.375 15.5938 86.0104 16.125 85.5312 16.625C85.0521 17.1146 84.5 17.625 83.875 18.1562C83.2604 18.6875 82.5365 19.2448 81.7031 19.8281C80.8802 20.4115 79.9688 20.9896 78.9688 21.5625C77.9688 22.1354 76.9062 22.651 75.7812 23.1094C73.2917 24.1302 70.8802 24.6406 68.5469 24.6406C66.7656 24.6406 65.2083 24.1771 63.875 23.25C62.4792 22.2812 61.7812 21.1042 61.7812 19.7188C61.7812 17.5417 62.9531 15.474 65.2969 13.5156C67.3177 11.8281 69.6979 10.5208 72.4375 9.59375C74.1042 9.03125 75.5156 8.75 76.6719 8.75C77.6094 8.75 78.401 8.97917 79.0469 9.4375C79.7344 9.9375 80.0781 10.6094 80.0781 11.4531C80.0781 12.776 79.0312 14.2396 76.9375 15.8438C76.6042 16.1042 76.3021 16.3229 76.0312 16.5L75.4688 16.875C74.4271 17.6042 72.8438 18.4219 70.7188 19.3281C71.375 19.6719 71.9844 19.8438 72.5469 19.8438C73.1198 19.8438 73.6302 19.776 74.0781 19.6406C74.5365 19.5052 75.0521 19.3125 75.625 19.0625C76.1979 18.8125 76.8073 18.5156 77.4531 18.1719C78.1094 17.8177 78.7708 17.4323 79.4375 17.0156C80.9271 16.0885 82.2188 15.1406 83.3125 14.1719C83.8854 13.6406 84.6146 13.2188 85.5 12.9062C85.7917 12.8125 86.0469 12.7656 86.2656 12.7656ZM69.0312 17.1562L69.8906 16.7188C70.1719 16.5729 70.4219 16.4375 70.6406 16.3125C72.7448 15.1042 73.9427 14.3594 74.2344 14.0781C74.526 13.7969 74.6719 13.6042 74.6719 13.5C74.6719 13.3854 74.6406 13.2552 74.5781 13.1094C74.5156 12.9635 74.4323 12.8333 74.3281 12.7188C74.0781 12.4271 73.8125 12.2812 73.5312 12.2812C73.25 12.2812 72.9375 12.3333 72.5938 12.4375C72.2604 12.5417 71.9219 12.6875 71.5781 12.875C71.2344 13.0521 70.901 13.2708 70.5781 13.5312C70.2656 13.7812 69.9896 14.0521 69.75 14.3438C69.1979 15 68.9219 15.5677 68.9219 16.0469C68.9219 16.526 68.9583 16.8958 69.0312 17.1562Z" fill="#27272A"/>
<path d="M45.2188 19.0938C45.0208 19.0938 44.8281 19.0469 44.6406 18.9531C44.4427 18.8594 44.2604 18.7083 44.0938 18.5C43.7292 18.0417 43.5469 17.4167 43.5469 16.625C43.5469 15.7812 44.0521 14.7292 45.0625 13.4688C46.0417 12.25 47.1823 11.1979 48.4844 10.3125C49.8802 9.35417 51.0781 8.875 52.0781 8.875C52.9635 8.875 53.5625 9.125 53.875 9.625L54.0938 9.96875C54.2604 10.2292 54.4271 10.3594 54.5938 10.3594C54.7604 10.3594 55.0208 10.3438 55.375 10.3125L57.5938 10.1562C57.9375 10.125 58.2083 10.1094 58.4062 10.1094C58.6042 10.1094 58.8281 10.1823 59.0781 10.3281C59.3385 10.4635 59.5677 10.6458 59.7656 10.875C60.2031 11.3958 60.4219 11.9688 60.4219 12.5938C60.4219 13.2396 59.7083 14.2552 58.2812 15.6406L57.25 16.6719C56.5104 17.4323 56.1406 17.9115 56.1406 18.1094C56.1406 18.3073 56.2344 18.4844 56.4219 18.6406C56.6094 18.7865 56.8125 18.8594 57.0312 18.8594C57.25 18.8594 57.4948 18.8021 57.7656 18.6875C58.0469 18.5625 58.3906 18.3854 58.7969 18.1562C59.2031 17.9167 59.6667 17.6302 60.1875 17.2969C61.6146 16.3594 62.5677 15.7135 63.0469 15.3594L64.3438 14.4375C65.2292 13.8125 65.8594 13.5 66.2344 13.5C66.6094 13.5 66.9167 13.5833 67.1562 13.75C67.3958 13.9062 67.5156 14.1823 67.5156 14.5781C67.5156 14.974 67.3125 15.5052 66.9062 16.1719C66.5 16.8385 66.0573 17.4167 65.5781 17.9062C65.1094 18.3958 64.651 18.849 64.2031 19.2656C63.7552 19.6823 63.224 20.1354 62.6094 20.625C62.0052 21.1042 61.3333 21.5938 60.5938 22.0938C59.8542 22.5833 59.0729 23.026 58.25 23.4219C56.3854 24.3281 54.6719 24.7812 53.1094 24.7812C50.8281 24.7812 49.4375 24.1927 48.9375 23.0156C48.7812 22.6615 48.7031 22.2656 48.7031 21.8281C48.7031 21.3906 48.7865 20.9219 48.9531 20.4219C49.1198 19.9115 49.3385 19.4062 49.6094 18.9062C50.151 17.9167 50.7917 17.0417 51.5312 16.2812C52.1562 15.625 52.4688 15.2344 52.4688 15.1094C52.4688 14.9115 52.3542 14.7865 52.125 14.7344C51.9062 14.6823 51.5781 14.6562 51.1406 14.6562C50.9531 14.6562 50.5521 14.9271 49.9375 15.4688L48.4062 16.875C46.7812 18.3542 45.7188 19.0938 45.2188 19.0938Z" fill="#27272A"/>
<path d="M41.375 14.625C41.375 15.1875 41.8542 15.4688 42.8125 15.4688C43.5208 15.4688 44.4479 15.125 45.5938 14.4375L46.8438 13.75C47.2292 13.5312 47.5625 13.4219 47.8438 13.4219C48.1354 13.4219 48.3646 13.5104 48.5312 13.6875C48.6979 13.8646 48.7812 14.1094 48.7812 14.4219C48.7812 14.7344 48.6771 15.099 48.4688 15.5156C48.2604 15.9219 47.974 16.3542 47.6094 16.8125C47.2448 17.2604 46.8177 17.7083 46.3281 18.1562C45.8385 18.5938 45.3125 18.9896 44.75 19.3438C43.5 20.125 42.3385 20.5156 41.2656 20.5156C40.1302 20.5156 39.224 20.3229 38.5469 19.9375C38.3385 19.8125 38.1354 19.6823 37.9375 19.5469C36.8229 20.8177 35.2083 21.9844 33.0938 23.0469C30.8438 24.1719 28.8802 24.7344 27.2031 24.7344C25.4427 24.7344 24.0521 24.0417 23.0312 22.6562C22.2083 21.5312 21.7969 20.3906 21.7969 19.2344C21.7969 17.5677 22.6875 15.9792 24.4688 14.4688C25.7812 13.3646 27.0469 12.526 28.2656 11.9531C29.4948 11.3802 30.6042 10.9375 31.5938 10.625C33.6875 9.96875 35.5729 9.64062 37.25 9.64062C38 9.64062 38.6667 9.78646 39.25 10.0781C39.8438 10.3594 40.2812 10.6458 40.5625 10.9375C41.2292 11.5938 41.5625 12.4323 41.5625 13.4531C41.5625 13.7552 41.5312 13.9896 41.4688 14.1562C41.4062 14.3229 41.375 14.4792 41.375 14.625ZM28.5938 17.5781L28.5781 17.625V17.6406C28.5781 18.0885 28.6771 18.3802 28.875 18.5156C29.3542 18.8073 29.8594 18.8854 30.3906 18.75C30.9219 18.6042 31.4271 18.4271 31.9062 18.2188C33.0938 17.7083 34.1667 17.0625 35.125 16.2812C34.9583 15.9479 34.875 15.6042 34.875 15.25C34.875 14.5 35.2031 13.75 35.8594 13C35.026 13 33.901 13.3906 32.4844 14.1719C30.9219 15.0365 29.75 15.9271 28.9688 16.8438C28.7188 17.1562 28.5938 17.401 28.5938 17.5781Z" fill="#27272A"/>
<path d="M14.9375 25C12.8021 25 10.6979 23.6354 8.625 20.9062L6.8125 22.25C4.88542 23.625 3.60417 24.3125 2.96875 24.3125C2.25 24.3125 1.58333 24.0417 0.96875 23.5C0.791667 23.3438 0.661458 23.1771 0.578125 23C0.192708 22.6146 0 21.6094 0 19.9844C0 18.349 0.182292 16.8177 0.546875 15.3906C0.911458 13.9635 1.38542 12.6406 1.96875 11.4219C2.88542 9.50521 4.30729 7.40104 6.23438 5.10938C7.31771 3.54688 8.64583 2.26562 10.2188 1.26562C11.5521 0.421875 12.6667 0 13.5625 0C14.0521 0 14.4635 0.109375 14.7969 0.328125C15.1406 0.546875 15.3125 0.84375 15.3125 1.21875C15.3125 1.59375 15.1667 2.00521 14.875 2.45312C11.4479 7.45312 9.46875 10.3698 8.9375 11.2031C8.40625 12.0365 8.03125 12.6771 7.8125 13.125C7.59375 13.5729 7.43229 13.9167 7.32812 14.1562C7.22396 14.3854 7.125 14.625 7.03125 14.875C6.8125 15.4583 6.70312 15.8802 6.70312 16.1406C6.70312 16.401 6.90104 16.5312 7.29688 16.5312C7.66146 16.5312 8.61458 15.5885 10.1562 13.7031L12.25 11.1094C13.0208 10.1406 13.8177 9.47396 14.6406 9.10938C15.474 8.74479 16.1979 8.5625 16.8125 8.5625C18.5521 8.5625 19.4219 8.98438 19.4219 9.82812C19.4219 10.5885 18.8438 11.6562 17.6875 13.0312C17.5625 13.1771 17.375 13.375 17.125 13.625L15.0312 15.5625L13.6406 16.7969C14.6198 17.9427 15.5833 18.75 16.5312 19.2188C16.75 19.3229 16.9323 19.375 17.0781 19.375C17.2344 19.375 17.5104 19.2812 17.9062 19.0938C18.3021 18.8958 18.7448 18.6458 19.2344 18.3438C19.7344 18.0312 20.2604 17.6823 20.8125 17.2969L25.0938 14.1719C25.4688 13.8802 25.8438 13.7344 26.2188 13.7344C27 13.7344 27.3906 14.0573 27.3906 14.7031C27.3906 15.5469 26.9792 16.5312 26.1562 17.6562C25.9062 17.9896 25.6667 18.2708 25.4375 18.5L24.4375 19.4062C21.6458 22 19.1146 23.7292 16.8438 24.5938C16.1562 24.8646 15.5208 25 14.9375 25Z" fill="#27272A"/>
</svg>
