<svg width="270" height="33" viewBox="0 0 270 33" fill="none" xmlns="http://www.w3.org/2000/svg">
<path d="M8.12799 20.864L5.95199 20.16L15.136 8.76797H23.392L7.16799 27.168H-1.07288e-05V2.52797H8.12799V20.864ZM9.88799 18.272L16.16 14.272L23.84 27.168H14.816L9.88799 18.272ZM35.1427 27.744C32.7107 27.744 30.5774 27.3386 28.7427 26.528C26.9294 25.7173 25.5107 24.576 24.4867 23.104C23.4841 21.632 22.9827 19.9253 22.9827 17.984C22.9827 16.0213 23.4841 14.304 24.4867 12.832C25.5107 11.36 26.9294 10.2186 28.7427 9.40797C30.5774 8.5973 32.7107 8.19197 35.1427 8.19197C37.5747 8.19197 39.6974 8.5973 41.5107 9.40797C43.3454 10.2186 44.7641 11.36 45.7667 12.832C46.7907 14.304 47.3027 16.0213 47.3027 17.984C47.3027 19.9253 46.7907 21.632 45.7667 23.104C44.7641 24.576 43.3454 25.7173 41.5107 26.528C39.6974 27.3386 37.5747 27.744 35.1427 27.744ZM35.1427 21.824C35.9961 21.824 36.7107 21.6746 37.2867 21.376C37.8841 21.0773 38.3321 20.64 38.6307 20.064C38.9507 19.488 39.1107 18.7946 39.1107 17.984C39.1107 17.152 38.9507 16.448 38.6307 15.872C38.3321 15.296 37.8841 14.8586 37.2867 14.56C36.7107 14.2613 35.9961 14.112 35.1427 14.112C34.3107 14.112 33.5961 14.2613 32.9987 14.56C32.4014 14.8586 31.9427 15.296 31.6227 15.872C31.3241 16.448 31.1747 17.152 31.1747 17.984C31.1747 18.7946 31.3241 19.488 31.6227 20.064C31.9427 20.64 32.4014 21.0773 32.9987 21.376C33.5961 21.6746 34.3107 21.824 35.1427 21.824ZM48.5735 8.76797H56.8935L57.9815 15.264V27.168H49.8535V15.168L48.5735 8.76797ZM66.1095 8.38397V15.264C65.3842 15.136 64.7335 15.0506 64.1575 15.008C63.5815 14.944 63.0695 14.912 62.6215 14.912C61.8108 14.912 61.0535 15.0613 60.3495 15.36C59.6455 15.6373 59.0695 16.1493 58.6215 16.896C58.1948 17.6426 57.9815 18.7093 57.9815 20.096L56.5415 18.304C56.7548 16.9813 57.0215 15.7226 57.3415 14.528C57.6828 13.312 58.1308 12.2346 58.6855 11.296C59.2402 10.336 59.9442 9.57863 60.7975 9.02397C61.6508 8.4693 62.7175 8.19197 63.9975 8.19197C64.3175 8.19197 64.6482 8.2133 64.9895 8.25597C65.3308 8.2773 65.7042 8.31997 66.1095 8.38397ZM79.0445 27.744C76.7618 27.744 74.7138 27.3386 72.9005 26.528C71.1085 25.696 69.6898 24.544 68.6445 23.072C67.5992 21.5786 67.0765 19.8506 67.0765 17.888C67.0765 15.9466 67.5778 14.2506 68.5805 12.8C69.6045 11.3493 70.9912 10.2186 72.7405 9.40797C74.4898 8.5973 76.4525 8.19197 78.6285 8.19197C80.9112 8.19197 82.8525 8.6613 84.4525 9.59997C86.0525 10.5386 87.2792 11.872 88.1325 13.6C88.9858 15.3066 89.4125 17.3333 89.4125 19.68H73.7325V15.936H84.6765L82.5005 17.152C82.3938 16.32 82.1805 15.6266 81.8605 15.072C81.5405 14.5173 81.1138 14.1013 80.5805 13.824C80.0685 13.5253 79.4498 13.376 78.7245 13.376C77.9138 13.376 77.2205 13.5573 76.6445 13.92C76.0898 14.2826 75.6632 14.784 75.3645 15.424C75.0872 16.0426 74.9485 16.7466 74.9485 17.536C74.9485 18.56 75.1725 19.424 75.6205 20.128C76.0898 20.8106 76.7938 21.3333 77.7325 21.696C78.6712 22.0586 79.8552 22.24 81.2845 22.24C82.6712 22.24 84.0152 22.0693 85.3165 21.728C86.6392 21.3653 87.8552 20.8533 88.9645 20.192V24.8C87.5992 25.76 86.0418 26.496 84.2925 27.008C82.5645 27.4986 80.8152 27.744 79.0445 27.744ZM90.7922 8.76797H98.9202L100.2 16.608V27.168H92.0722V15.36L90.7922 8.76797ZM106.248 8.19197C107.976 8.19197 109.448 8.55463 110.664 9.27997C111.88 9.98397 112.808 10.9866 113.448 12.288C114.088 13.568 114.408 15.072 114.408 16.8V27.168H106.28V17.952C106.28 16.928 106.024 16.1386 105.512 15.584C105.022 15.0293 104.307 14.752 103.368 14.752C102.707 14.752 102.131 14.9013 101.64 15.2C101.171 15.4773 100.808 15.8933 100.552 16.448C100.318 16.9813 100.2 17.632 100.2 18.4L97.8002 17.184C98.0989 15.1786 98.6536 13.5146 99.4642 12.192C100.296 10.848 101.299 9.8453 102.472 9.18397C103.646 8.52263 104.904 8.19197 106.248 8.19197ZM120.424 8.19197C122.152 8.19197 123.624 8.55463 124.84 9.27997C126.078 9.98397 127.016 10.9866 127.656 12.288C128.296 13.568 128.616 15.072 128.616 16.8V27.168H120.488V17.952C120.488 16.928 120.232 16.1386 119.72 15.584C119.23 15.0293 118.515 14.752 117.576 14.752C116.915 14.752 116.339 14.9013 115.848 15.2C115.379 15.4773 115.016 15.8933 114.76 16.448C114.526 16.9813 114.408 17.632 114.408 18.4L112.008 17.184C112.307 15.1786 112.862 13.5146 113.672 12.192C114.483 10.848 115.475 9.8453 116.648 9.18397C117.822 8.52263 119.08 8.19197 120.424 8.19197ZM131.565 12.864H140.589V19.2H131.565V12.864ZM143.75 8.38397L147.814 9.21597L151.878 8.38397V27.168H143.75V8.38397ZM147.814 7.42397C146.449 7.42397 145.35 7.0933 144.518 6.43197C143.686 5.77063 143.27 4.86397 143.27 3.71197C143.27 2.55997 143.686 1.6533 144.518 0.991968C145.35 0.330634 146.449 -3.24249e-05 147.814 -3.24249e-05C149.201 -3.24249e-05 150.299 0.330634 151.11 0.991968C151.942 1.6533 152.358 2.55997 152.358 3.71197C152.358 4.86397 151.942 5.77063 151.11 6.43197C150.299 7.0933 149.201 7.42397 147.814 7.42397ZM154.937 8.76797H163.065V13.312L162.745 14.208V20.288L163.065 22.048V32.448H154.937V8.76797ZM160.665 17.984C160.879 15.9786 161.401 14.2506 162.233 12.8C163.087 11.328 164.196 10.1973 165.561 9.40797C166.927 8.5973 168.473 8.19197 170.201 8.19197C172.015 8.19197 173.593 8.5973 174.937 9.40797C176.281 10.2186 177.327 11.36 178.073 12.832C178.841 14.304 179.225 16.0213 179.225 17.984C179.225 19.9253 178.841 21.632 178.073 23.104C177.327 24.576 176.281 25.7173 174.937 26.528C173.593 27.3386 172.015 27.744 170.201 27.744C168.452 27.744 166.895 27.3386 165.529 26.528C164.185 25.7173 163.097 24.5866 162.265 23.136C161.433 21.664 160.9 19.9466 160.665 17.984ZM171.033 17.984C171.033 17.28 170.884 16.6506 170.585 16.096C170.308 15.5413 169.903 15.104 169.369 14.784C168.857 14.464 168.26 14.304 167.577 14.304C166.873 14.304 166.191 14.464 165.529 14.784C164.868 15.104 164.292 15.5413 163.801 16.096C163.311 16.6506 162.959 17.28 162.745 17.984C162.959 18.688 163.311 19.3173 163.801 19.872C164.292 20.4053 164.868 20.832 165.529 21.152C166.191 21.472 166.873 21.632 167.577 21.632C168.26 21.632 168.857 21.472 169.369 21.152C169.903 20.832 170.308 20.4053 170.585 19.872C170.884 19.3173 171.033 18.688 171.033 17.984ZM204.441 20.896C204.441 22.432 203.961 23.712 203.001 24.736C202.041 25.7386 200.697 26.496 198.969 27.008C197.262 27.4986 195.257 27.744 192.953 27.744C190.585 27.744 188.494 27.4666 186.681 26.912C184.889 26.336 183.47 25.536 182.425 24.512C181.401 23.488 180.857 22.2933 180.793 20.928H189.049C189.198 21.3333 189.454 21.6746 189.817 21.952C190.18 22.208 190.649 22.4106 191.225 22.56C191.822 22.688 192.548 22.752 193.401 22.752C194.425 22.752 195.204 22.656 195.737 22.464C196.27 22.2506 196.537 21.9626 196.537 21.6C196.537 21.2373 196.313 20.9813 195.865 20.832C195.417 20.6826 194.692 20.576 193.689 20.512L190.681 20.32C188.356 20.1706 186.5 19.872 185.113 19.424C183.748 18.9546 182.766 18.3253 182.169 17.536C181.572 16.7466 181.273 15.7973 181.273 14.688C181.273 13.216 181.732 12 182.649 11.04C183.588 10.08 184.889 9.3653 186.553 8.89597C188.217 8.42663 190.158 8.19197 192.377 8.19197C194.553 8.19197 196.484 8.4693 198.169 9.02397C199.854 9.5573 201.209 10.3146 202.233 11.296C203.257 12.2773 203.854 13.4186 204.025 14.72H195.769C195.662 14.336 195.449 14.0053 195.129 13.728C194.809 13.4506 194.393 13.2373 193.881 13.088C193.369 12.9386 192.75 12.864 192.025 12.864C191.044 12.864 190.329 12.9813 189.881 13.216C189.433 13.4293 189.209 13.7173 189.209 14.08C189.209 14.4213 189.348 14.6666 189.625 14.816C189.902 14.944 190.446 15.0293 191.257 15.072L195.289 15.328C197.593 15.456 199.406 15.7546 200.729 16.224C202.073 16.672 203.022 17.28 203.577 18.048C204.153 18.816 204.441 19.7653 204.441 20.896ZM214.844 27.712C213.116 27.712 211.634 27.36 210.396 26.656C209.159 25.9306 208.21 24.928 207.548 23.648C206.908 22.3466 206.588 20.8426 206.588 19.136V8.76797H214.716V17.984C214.716 18.9866 214.972 19.7653 215.484 20.32C216.018 20.8746 216.764 21.152 217.724 21.152C218.471 21.152 219.079 21.024 219.548 20.768C220.039 20.4906 220.402 20.0853 220.636 19.552C220.892 18.9973 221.02 18.3253 221.02 17.536L223.42 18.752C223.143 20.736 222.578 22.4 221.724 23.744C220.892 25.0666 219.879 26.0586 218.684 26.72C217.511 27.3813 216.231 27.712 214.844 27.712ZM222.3 27.168L221.02 19.328V8.76797H229.148V20.576L230.428 27.168H222.3ZM231.761 8.76797H239.889L241.169 16.608V27.168H233.041V15.36L231.761 8.76797ZM247.217 8.19197C248.945 8.19197 250.417 8.55463 251.633 9.27997C252.849 9.98397 253.777 10.9866 254.417 12.288C255.057 13.568 255.377 15.072 255.377 16.8V27.168H247.249V17.952C247.249 16.928 246.993 16.1386 246.481 15.584C245.99 15.0293 245.276 14.752 244.337 14.752C243.676 14.752 243.1 14.9013 242.609 15.2C242.14 15.4773 241.777 15.8933 241.521 16.448C241.286 16.9813 241.169 17.632 241.169 18.4L238.769 17.184C239.068 15.1786 239.622 13.5146 240.433 12.192C241.265 10.848 242.268 9.8453 243.441 9.18397C244.614 8.52263 245.873 8.19197 247.217 8.19197ZM261.393 8.19197C263.121 8.19197 264.593 8.55463 265.809 9.27997C267.046 9.98397 267.985 10.9866 268.625 12.288C269.265 13.568 269.585 15.072 269.585 16.8V27.168H261.457V17.952C261.457 16.928 261.201 16.1386 260.689 15.584C260.198 15.0293 259.484 14.752 258.545 14.752C257.884 14.752 257.308 14.9013 256.817 15.2C256.348 15.4773 255.985 15.8933 255.729 16.448C255.494 16.9813 255.377 17.632 255.377 18.4L252.977 17.184C253.276 15.1786 253.83 13.5146 254.641 12.192C255.452 10.848 256.444 9.8453 257.617 9.18397C258.79 8.52263 260.049 8.19197 261.393 8.19197Z" fill="#27272A"/>
</svg>
